<svg width="324" height="274" viewBox="0 0 324 274" fill="none" xmlns="http://www.w3.org/2000/svg">
<path d="M211.5 130L164 80.9999H20.5C20.5 80.9999 17.0001 80.9999 15 83C12.9999 85.0001 12.5 88 12.5 88C8.2469 116.581 5.02335 134.603 0.5 165H130.5L154.5 192.5L104.5 243.5H169.5L324 80.9999H261L211.5 130Z" fill="#405D72"/>
<path d="M22.5 93L20.5 106.5H34.5L28.5 149.5H43L48.5 106.5H63L64.5 93H22.5Z" fill="white"/>
<path d="M82.5 92.5H69L59.5 149.5H74.5L77 131H92L89.5 149.5H104L112 92.5H98L94.5 116.5H79.5L82.5 92.5Z" fill="white"/>
<path d="M113.5 106.5L115.5 92.5H158.5L157 106.5H142.5L135.5 149.5H120.5L127 106.5H113.5Z" fill="white"/>
<path d="M161 274C236.663 274 298 212.663 298 137C298 133.807 297.715 129.639 297.5 126.5L287 137C286.463 206.128 230.254 263 161 263C105.58 263 58.5167 227.22 41.6502 177.5H30.085C47.3561 233.392 99.4358 274 161 274Z" fill="#405D72"/>
<path d="M279.5 69C255.812 28.0506 211.709 0 161 0C111.749 0 68.5684 25.9885 44.423 65C44.1122 65.5022 42.3045 68.9935 42 69.5H54.5C54.5 69.5 56.1063 67.1664 56.2177 67C78.821 33.2324 117.314 11 161 11C205.543 11 244.687 34.113 267.094 69H279.5Z" fill="#405D72"/>
</svg>
